<svg width="17" height="21" viewBox="0 0 17 21" fill="none" xmlns="http://www.w3.org/2000/svg">
<path d="M14.2133 11.0973C14.2043 9.37671 14.954 8.07803 16.4716 7.12161C15.6225 5.86044 14.3398 5.16656 12.6461 5.0306C11.0428 4.89933 9.29038 6.00109 8.64904 6.00109C7.97157 6.00109 6.41791 5.07749 5.19846 5.07749C2.67827 5.11968 0 7.1638 0 11.3224C0 12.5507 0.216791 13.8197 0.650372 15.1293C1.22848 16.8499 3.31509 21.0695 5.49203 20.9991C6.63018 20.971 7.43411 20.1599 8.91551 20.1599C10.3518 20.1599 11.097 20.9991 12.3661 20.9991C14.5611 20.9663 16.449 17.1312 17 15.4059C14.0553 13.9666 14.2133 11.1864 14.2133 11.0973ZM11.657 3.39906C12.89 1.88003 12.7771 0.496965 12.741 0C11.6525 0.0656369 10.3924 0.76889 9.67428 1.63624C8.8839 2.56453 8.4187 3.71318 8.51807 5.00716C9.69687 5.10093 10.7718 4.47269 11.657 3.39906Z" fill="#28292B"/>
</svg>
