<svg width="20" height="18" viewBox="0 0 20 18" fill="none" xmlns="http://www.w3.org/2000/svg">
<path d="M9.9998 13.2C11.7671 13.2 13.1998 11.7673 13.1998 10C13.1998 8.23269 11.7671 6.8 9.9998 6.8C8.23249 6.8 6.7998 8.23269 6.7998 10C6.7998 11.7673 8.23249 13.2 9.9998 13.2Z" />
<path d="M7 0L5.17 2H2C0.9 2 0 2.9 0 4V16C0 17.1 0.9 18 2 18H18C19.1 18 20 17.1 20 16V4C20 2.9 19.1 2 18 2H14.83L13 0H7ZM10 15C7.24 15 5 12.76 5 10C5 7.24 7.24 5 10 5C12.76 5 15 7.24 15 10C15 12.76 12.76 15 10 15Z" />
</svg>
