<svg width="51" height="52" viewBox="0 0 51 52" xmlns="http://www.w3.org/2000/svg">
<path d="M25.4999 0.166687C11.4699 0.166687 0.083252 11.74 0.083252 26C0.083252 40.26 11.4699 51.8334 25.4999 51.8334C39.5299 51.8334 50.9166 40.26 50.9166 26C50.9166 11.74 39.5299 0.166687 25.4999 0.166687ZM25.4999 46.6667C14.2658 46.6667 5.16659 37.4184 5.16659 26C5.16659 21.2209 6.76784 16.8292 9.462 13.3417L37.9541 42.3009C34.5228 45.0392 30.202 46.6667 25.4999 46.6667ZM41.5378 38.6584L13.0458 9.69919C16.477 6.96085 20.7978 5.33335 25.4999 5.33335C36.7341 5.33335 45.8333 14.5817 45.8333 26C45.8333 30.7792 44.232 35.1709 41.5378 38.6584Z" />
</svg>
