<svg width="24" height="23" viewBox="0 0 24 23" fill="none" xmlns="http://www.w3.org/2000/svg">
<path d="M11.9997 9.33333H14.333V5.83333H17.833V3.5H14.333V0H11.9997V3.5H8.49967V5.83333H11.9997V9.33333ZM7.33301 19.8333C6.04967 19.8333 5.01134 20.8833 5.01134 22.1667C5.01134 23.45 6.04967 24.5 7.33301 24.5C8.61634 24.5 9.66634 23.45 9.66634 22.1667C9.66634 20.8833 8.61634 19.8333 7.33301 19.8333ZM18.9997 19.8333C17.7163 19.8333 16.678 20.8833 16.678 22.1667C16.678 23.45 17.7163 24.5 18.9997 24.5C20.283 24.5 21.333 23.45 21.333 22.1667C21.333 20.8833 20.283 19.8333 18.9997 19.8333ZM7.53134 16.0417L7.56634 15.9017L8.61634 14H17.308C18.183 14 18.953 13.5217 19.3497 12.7983L23.853 4.62L21.823 3.5H21.8113L20.528 5.83333L17.308 11.6667H9.11801L8.96634 11.3517L6.35301 5.83333L5.24467 3.5L4.14801 1.16667H0.333008V3.5H2.66634L6.86634 12.355L5.29134 15.2133C5.10467 15.54 4.99967 15.925 4.99967 16.3333C4.99967 17.6167 6.04967 18.6667 7.33301 18.6667H21.333V16.3333H7.82301C7.67134 16.3333 7.53134 16.205 7.53134 16.0417Z" fill="#00D37B"/>
</svg>
