<svg width="20" height="20" viewBox="0 0 20 20" fill="none" xmlns="http://www.w3.org/2000/svg">
<path d="M14.2074 5.94833L8.16659 11.9892L4.87575 8.7075L3.58325 10L8.16659 14.5833L15.4999 7.25L14.2074 5.94833ZM9.99992 0.833328C4.93992 0.833328 0.833252 4.93999 0.833252 10C0.833252 15.06 4.93992 19.1667 9.99992 19.1667C15.0599 19.1667 19.1666 15.06 19.1666 10C19.1666 4.93999 15.0599 0.833328 9.99992 0.833328ZM9.99992 17.3333C5.94825 17.3333 2.66659 14.0517 2.66659 10C2.66659 5.94833 5.94825 2.66666 9.99992 2.66666C14.0516 2.66666 17.3333 5.94833 17.3333 10C17.3333 14.0517 14.0516 17.3333 9.99992 17.3333Z" fill="#000"/>
</svg>