<svg width="41" height="41" viewBox="0 0 41 41" fill="none" xmlns="http://www.w3.org/2000/svg">
<path d="M36.1152 12.9378C33.4217 12.9378 31.2305 15.1291 31.2305 17.8226C31.2305 20.1017 32.7995 22.0208 34.9141 22.5575V28.4187C34.9141 34.0314 30.3478 38.5977 24.7351 38.5977C19.1223 38.5977 14.5561 34.0314 14.5561 28.4187V26.4299C17.9168 26.0114 20.8564 23.8584 22.2435 20.7059L26.0491 12.0567C26.4875 11.0604 26.7098 10.0031 26.7098 8.91454V7.80217C26.7098 3.50005 23.2098 0 18.9076 0H17.3049V2.40234H18.9077C21.8852 2.40234 24.3076 4.82471 24.3076 7.80217V8.91454C24.3076 9.66799 24.1537 10.3997 23.8503 11.0892L20.0447 19.7384C18.8778 22.3902 16.2519 24.1035 13.3549 24.1035C10.4578 24.1035 7.83196 22.3902 6.66522 19.7384L2.85959 11.0892C2.55617 10.3997 2.40234 9.66799 2.40234 8.91454V7.80217C2.40234 4.82471 4.82471 2.40234 7.80217 2.40234H9.40502V0H7.80217C3.50005 0 0 3.50005 0 7.80217V8.91454C0 10.0032 0.222297 11.0604 0.660725 12.0567L4.46636 20.7059C5.85339 23.8584 8.79298 26.0114 12.1537 26.4299V28.4187C12.1537 35.356 17.7976 41 24.735 41C31.6724 41 37.3164 35.356 37.3164 28.4187V22.5575C39.431 22.0208 41 20.1017 41 17.8226C41 15.1291 38.8087 12.9378 36.1152 12.9378ZM36.1152 20.305C34.7464 20.305 33.6328 19.1914 33.6328 17.8226C33.6328 16.4538 34.7464 15.3402 36.1152 15.3402C37.4841 15.3402 38.5977 16.4538 38.5977 17.8226C38.5977 19.1914 37.4841 20.305 36.1152 20.305Z" fill="#00D37B"/>
</svg>
