<?xml version="1.0" ?><svg viewBox="0 0 512 512" xmlns="http://www.w3.org/2000/svg"><title/><g data-name="1" id="_1"><path d="M340.94,450H103.86A47.91,47.91,0,0,1,56,402.14V260.65a47.91,47.91,0,0,1,47.86-47.86H340.94a47.91,47.91,0,0,1,47.86,47.86V402.14A47.91,47.91,0,0,1,340.94,450ZM103.86,242.79A17.88,17.88,0,0,0,86,260.65V402.14A17.88,17.88,0,0,0,103.86,420H340.94a17.88,17.88,0,0,0,17.86-17.86V260.65a17.88,17.88,0,0,0-17.86-17.86Z"/><path d="M408.16,369.22H373.8a15,15,0,1,1,0-30h34.36A17.88,17.88,0,0,0,426,321.36V179.87A17.88,17.88,0,0,0,408.16,162H171.08a17.88,17.88,0,0,0-17.86,17.86v47.92a15,15,0,0,1-30,0V179.87A47.91,47.91,0,0,1,171.08,132H408.16A47.91,47.91,0,0,1,456,179.87V321.36A47.91,47.91,0,0,1,408.16,369.22Z"/><path d="M373.8,342.79H71a15,15,0,0,1-15-15V277.41a15,15,0,0,1,15-15H373.8a15,15,0,0,1,15,15v50.38A15,15,0,0,1,373.8,342.79ZM86,312.79H358.8V292.41H86Z"/></g></svg>