<svg width="14" height="23" viewBox="0 0 14 23" fill="none" xmlns="http://www.w3.org/2000/svg">
<path d="M7.39333 10.2167C4.745 9.52833 3.89333 8.81667 3.89333 7.70833C3.89333 6.43667 5.07167 5.55 7.04333 5.55C9.12 5.55 9.89 6.54167 9.96 8H12.5383C12.4567 5.99333 11.2317 4.15 8.79333 3.555V1H5.29333V3.52C3.03 4.01 1.21 5.48 1.21 7.73167C1.21 10.4267 3.43833 11.7683 6.69333 12.55C9.61 13.25 10.1933 14.2767 10.1933 15.3617C10.1933 16.1667 9.62167 17.45 7.04333 17.45C4.64 17.45 3.695 16.3767 3.56667 15H1C1.14 17.555 3.05333 18.99 5.29333 19.4683V22H8.79333V19.4917C11.0683 19.06 12.8767 17.7417 12.8767 15.35C12.8767 12.0367 10.0417 10.905 7.39333 10.2167Z" fill="#000" fill="#000"/>
</svg>
