<svg width="43" height="31" viewBox="0 0 43 31" fill="none" xmlns="http://www.w3.org/2000/svg">
<path d="M10.7333 15.5C14.121 15.5 16.8667 12.926 16.8667 9.75C16.8667 6.57402 14.121 4 10.7333 4C7.34563 4 4.6 6.57402 4.6 9.75C4.6 12.926 7.34563 15.5 10.7333 15.5ZM15.0267 16.9375H14.2265C13.1627 17.3957 11.9792 17.6562 10.7333 17.6562C9.4875 17.6562 8.30875 17.3957 7.24021 16.9375H6.44C2.88458 16.9375 0 19.6418 0 22.975V24.8438C0 26.0342 1.03021 27 2.3 27H19.1667C20.4365 27 21.4667 26.0342 21.4667 24.8438V22.975C21.4667 19.6418 18.5821 16.9375 15.0267 16.9375Z" fill="#000"/>
<path d="M33.5016 15.0852C34.8747 13.7134 35.7333 11.8515 35.7333 9.75C35.7333 5.34983 31.9687 2 27.6 2C23.2313 2 19.4667 5.34983 19.4667 9.75C19.4667 11.8515 20.3253 13.7134 21.6984 15.0852C17.8853 15.7928 14.8667 18.9673 14.8667 22.975V24.8438C14.8667 27.2584 16.9159 29 19.1667 29H36.0333C38.2841 29 40.3333 27.2584 40.3333 24.8438V22.975C40.3333 18.9673 37.3147 15.7928 33.5016 15.0852Z" fill="#000" stroke="#F4F6FC" stroke-width="4"/>
</svg>
