<svg width="36" height="36" viewBox="0 0 36 36" fill="none" xmlns="http://www.w3.org/2000/svg">
<path d="M36 18C36 27.941 27.941 36 18 36C8.059 36 0 27.941 0 18C0 8.059 8.059 0 18 0C27.941 0 36 8.059 36 18Z" fill="#FFCC4D"/>
<path d="M18 21.5C8.667 21.5 7.515 29.854 7.504 29.938C7.483 30.109 7.55 30.278 7.683 30.387C7.773 30.461 7.886 30.5 8 30.5C8.053 30.5 8.106 30.491 8.158 30.475C8.217 30.455 14.126 28.5 18 28.5C23.595 28.5 27.745 30.433 27.786 30.452C27.947 30.529 28.144 30.512 28.293 30.405C28.44 30.298 28.519 30.119 28.496 29.937C28.485 29.854 27.333 21.5 18 21.5ZM29 10C23.446 10 21.198 5.63301 21.105 5.44701C20.858 4.95301 21.058 4.35201 21.552 4.10501C22.045 3.85901 22.644 4.05701 22.892 4.54801C22.967 4.69401 24.713 8.00001 29 8.00001C29.553 8.00001 30 8.44801 30 9.00001C30 9.55201 29.553 10 29 10ZM7 10C6.448 10 6 9.55201 6 9.00001C6 8.44801 6.448 8.00001 7 8.00001C12.083 8.00001 12.996 4.88001 13.033 4.74701C13.178 4.21901 13.725 3.89901 14.252 4.03801C14.782 4.17701 15.103 4.71101 14.97 5.24301C14.921 5.43701 13.704 10 7 10Z" fill="#664500"/>
<path d="M18 23C22 23 24 25 24 25H12C12 25 14 23 18 23Z" fill="#CCD6DD"/>
<path d="M6.00089 19C5.69689 19 5.39689 18.862 5.19989 18.6C4.86789 18.159 4.95789 17.532 5.39989 17.201C5.54289 17.094 8.35089 15.018 12.2559 14.268C9.78089 13.027 7.03389 13 6.99889 13C6.44689 12.998 5.99989 12.55 6.00089 11.998C6.00089 11.447 6.44789 11 6.99989 11C7.22089 11 12.4519 11.038 15.7069 14.293C15.9929 14.579 16.0789 15.009 15.9239 15.383C15.7689 15.756 15.4039 16 14.9999 16C10.3869 16 6.63689 18.772 6.59989 18.8C6.41989 18.935 6.20889 19 6.00089 19ZM29.9989 18.999C29.7909 18.999 29.5809 18.935 29.4009 18.801C29.3629 18.772 25.5899 16 20.9999 16C20.5959 16 20.2299 15.756 20.0759 15.383C19.9209 15.009 20.0069 14.579 20.2929 14.293C23.5489 11.038 28.7789 11 28.9999 11C29.5519 11 29.9979 11.447 29.9989 11.998C29.9999 12.55 29.5529 12.998 29.0019 13C28.9659 13 26.2189 13.027 23.7439 14.268C27.6489 15.018 30.4569 17.094 30.5989 17.201C31.0399 17.532 31.1299 18.157 30.7999 18.599C30.6039 18.86 30.3039 18.999 29.9989 18.999Z" fill="#664500"/>
</svg>
