<svg width="36" height="36" viewBox="0 0 36 36" fill="none" xmlns="http://www.w3.org/2000/svg">
<path d="M36 18C36 27.941 27.941 36 18 36C8.06 36 0 27.941 0 18C0 8.06 8.06 0 18 0C27.941 0 36 8.06 36 18Z" fill="#FFCC4D"/>
<path d="M28.4568 17.797C28.3968 17.662 26.9578 14.5 23.9998 14.5C21.0428 14.5 19.6028 17.662 19.5428 17.797C19.4508 18.004 19.5108 18.246 19.6878 18.388C19.8628 18.53 20.1138 18.535 20.2978 18.402C20.3098 18.393 21.5598 17.5 23.9998 17.5C26.4258 17.5 27.6738 18.381 27.7018 18.401C27.7898 18.467 27.8958 18.5 27.9998 18.5C28.1098 18.5 28.2208 18.463 28.3118 18.391C28.4888 18.249 28.5498 18.005 28.4568 17.797ZM17.4568 17.797C17.3968 17.662 15.9578 14.5 12.9998 14.5C10.0428 14.5 8.60282 17.662 8.54282 17.797C8.45082 18.004 8.51082 18.246 8.68682 18.388C8.86282 18.53 9.11382 18.535 9.29682 18.402C9.30982 18.393 10.5588 17.5 12.9998 17.5C15.4258 17.5 16.6738 18.381 16.7018 18.401C16.7908 18.467 16.8958 18.5 16.9998 18.5C17.1098 18.5 17.2208 18.463 17.3118 18.391C17.4898 18.249 17.5488 18.005 17.4568 17.797ZM12.9998 28C12.9998 28 13.9998 24 17.9998 24C21.9998 24 22.9998 28 22.9998 28C22.9998 28 21.9998 27 17.9998 27C13.9998 27 12.9998 28 12.9998 28Z" fill="#664500"/>
<path d="M11 11C11 13.762 8.762 16 6 16C3.239 16 1 13.762 1 11C1 8.238 5 1 6 1C7 1 11 8.238 11 11Z" fill="#5DADEC"/>
</svg>
