<svg width="36" height="36" viewBox="0 0 36 36" fill="none" xmlns="http://www.w3.org/2000/svg">
<path d="M18 36C27.9411 36 36 27.9411 36 18C36 8.05887 27.9411 0 18 0C8.05887 0 0 8.05887 0 18C0 27.9411 8.05887 36 18 36Z" fill="#FFCC4D"/>
<path d="M23.4848 28.879C23.4738 28.835 22.3398 24.5 17.9998 24.5C13.6598 24.5 12.5258 28.835 12.5148 28.879C12.4618 29.092 12.5588 29.31 12.7468 29.423C12.9348 29.535 13.1798 29.509 13.3428 29.363C13.3518 29.355 14.3558 28.5 17.9998 28.5C21.5898 28.5 22.6168 29.33 22.6558 29.363C22.7508 29.453 22.8748 29.5 22.9998 29.5C23.0838 29.5 23.1688 29.479 23.2458 29.436C23.4418 29.324 23.5398 29.097 23.4848 28.879ZM11.2258 15.512C10.9088 15.512 10.5898 15.551 10.2788 15.628C7.40877 16.335 6.76577 19.749 6.73977 19.895C6.69977 20.118 6.81577 20.338 7.02077 20.435C7.08777 20.466 7.16077 20.482 7.23177 20.482C7.37677 20.482 7.51877 20.419 7.61677 20.302C7.62677 20.29 8.62677 19.124 10.9958 18.541C11.7098 18.365 12.4078 18.276 13.0688 18.276C14.1728 18.276 14.8008 18.529 14.8038 18.53C14.8708 18.558 14.9348 18.57 15.0108 18.57C15.2828 18.582 15.5198 18.349 15.5198 18.07C15.5198 17.905 15.4398 17.759 15.3168 17.668C14.9498 17.233 13.3638 15.512 11.2258 15.512ZM24.7738 15.512C25.0908 15.512 25.4098 15.551 25.7208 15.628C28.5908 16.335 29.2338 19.749 29.2598 19.895C29.2998 20.118 29.1838 20.338 28.9788 20.435C28.9118 20.466 28.8388 20.482 28.7678 20.482C28.6228 20.482 28.4808 20.419 28.3828 20.302C28.3728 20.29 27.3728 19.124 25.0038 18.541C24.2898 18.365 23.5918 18.276 22.9308 18.276C21.8268 18.276 21.1998 18.529 21.1958 18.53C21.1288 18.558 21.0648 18.57 20.9898 18.57C20.7178 18.582 20.4808 18.349 20.4808 18.07C20.4808 17.905 20.5608 17.759 20.6838 17.668C21.0498 17.233 22.6358 15.512 24.7738 15.512Z" fill="#664500"/>
</svg>
