<svg width="36" height="36" viewBox="0 0 36 36" fill="none" xmlns="http://www.w3.org/2000/svg">
<path d="M36 18C36 27.941 27.941 36 18 36C8.06 36 0 27.941 0 18C0 8.06 8.06 0 18 0C27.941 0 36 8.06 36 18Z" fill="#FFCC4D"/>
<path d="M6 13C5.448 13 5 12.552 5 12C5 11.449 5.445 11.002 5.996 11C6.152 10.998 9.565 10.914 12.201 7.40002C12.532 6.96002 13.158 6.86802 13.601 7.20002C14.043 7.53102 14.132 8.15802 13.801 8.60002C10.538 12.95 6.184 13 6 13ZM30 13C29.816 13 25.463 12.95 22.2 8.60002C21.868 8.15802 21.958 7.53102 22.4 7.20002C22.841 6.86702 23.467 6.95802 23.799 7.40002C26.44 10.921 29.86 10.999 30.005 11C30.555 11.006 30.999 11.456 30.996 12.005C30.994 12.556 30.55 13 30 13ZM30.6 20.2C30.486 20.114 28.669 18.774 25.954 17.856C25.98 17.741 26 17.623 26 17.5C26 17.131 25.861 16.797 25.641 16.536C27.443 16.016 28.975 16 29.002 16C29.553 15.998 30 15.55 29.999 14.998C29.998 14.447 29.552 14 29 14C28.779 14 23.549 14.038 20.293 17.293C20.007 17.579 19.921 18.009 20.076 18.383C20.23 18.757 20.596 19 21 19C25.59 19 29.363 21.772 29.401 21.801C29.581 21.935 29.791 21.999 29.999 21.999C30.304 21.999 30.604 21.86 30.801 21.599C31.131 21.156 31.041 20.531 30.6 20.2ZM15.707 17.293C12.452 14.038 7.221 14 7 14C6.448 14 6.001 14.447 6.001 14.998C6 15.55 6.447 15.998 6.999 16C7.025 16 8.557 16.016 10.36 16.536C10.139 16.797 10 17.131 10 17.5C10 17.623 10.019 17.741 10.047 17.856C7.331 18.774 5.514 20.114 5.4 20.2C4.958 20.531 4.869 21.158 5.2 21.599C5.396 21.862 5.697 22 6.001 22C6.209 22 6.42 21.935 6.6 21.8C6.637 21.772 10.387 19 15 19C15.404 19 15.769 18.757 15.924 18.383C16.079 18.009 15.993 17.579 15.707 17.293ZM18 30C17.696 30 17.409 29.862 17.219 29.625L14.025 25.633L11.8 28.6C11.626 28.832 11.36 28.977 11.071 28.997C10.781 29.018 10.497 28.912 10.293 28.707L9.293 27.707C8.902 27.316 8.902 26.684 9.293 26.293C9.684 25.902 10.316 25.902 10.707 26.293L10.892 26.478L13.2 23.4C13.386 23.152 13.675 23.004 13.984 23C14.279 22.99 14.587 23.133 14.78 23.375L18 27.399L21.219 23.375C21.412 23.134 21.703 23 22.016 23C22.326 23.005 22.615 23.152 22.8 23.4L25.109 26.477L25.294 26.292C25.685 25.901 26.317 25.901 26.708 26.292C27.099 26.683 27.099 27.315 26.708 27.706L25.708 28.706C25.503 28.911 25.229 29.02 24.93 28.996C24.641 28.975 24.375 28.831 24.201 28.599L21.975 25.632L18.782 29.624C18.591 29.862 18.304 30 18 30Z" fill="#664500"/>
</svg>
