<svg width="14" height="17" viewBox="0 0 14 17" xmlns="http://www.w3.org/2000/svg">
<path d="M0.223835 13.9629C1.80045 10.8095 4.4743 5.46198 4.8812 4.64817V0.996094H4.84581C4.57076 0.996094 4.34776 0.773102 4.34776 0.498047C4.34776 0.222992 4.57076 0 4.84581 0H9.11351C9.38856 0 9.61155 0.222992 9.61155 0.498047C9.61155 0.773102 9.38856 0.996094 9.11351 0.996094H9.07811V4.64817C9.48502 5.46198 12.1589 10.8095 13.7355 13.9629C14.0631 14.6182 14.0289 15.3814 13.6437 16.0048C13.2583 16.628 12.591 17 11.8587 17H2.10057C1.36828 17 0.700996 16.628 0.315475 16.0046C-0.0695486 15.3814 -0.103813 14.6182 0.223835 13.9629ZM5.98355 14.3681C5.98355 14.6431 6.20654 14.8661 6.48159 14.8661H7.54854C7.8236 14.8661 8.04659 14.6431 8.04659 14.3681C8.04659 14.093 7.8236 13.87 7.54854 13.87H6.97964V12.7323H7.54854C7.8236 12.7323 8.04659 12.5093 8.04659 12.2342C8.04659 11.9592 7.8236 11.7362 7.54854 11.7362H6.97964V10.5984H7.54854C7.8236 10.5984 8.04659 10.3754 8.04659 10.1004C8.04659 9.82534 7.8236 9.60234 7.54854 9.60234H6.97964V8.46457H7.54854C7.8236 8.46457 8.04659 8.24158 8.04659 7.96653C8.04659 7.69147 7.8236 7.46848 7.54854 7.46848H6.48159C6.20654 7.46848 5.98355 7.69147 5.98355 7.96653V14.3681Z" />
</svg>
