<svg width="18" height="18" viewBox="0 0 18 18" fill="none" xmlns="http://www.w3.org/2000/svg">
<path d="M7.27734 7.03125C7.27734 6.64291 6.96255 6.32812 6.57422 6.32812H3.76172C3.37338 6.32812 3.05859 6.64291 3.05859 7.03125V8.29259H0V9.69884H3.05859V10.8984C3.05859 11.2868 3.37338 11.6016 3.76172 11.6016H6.57422C6.96255 11.6016 7.27734 11.2868 7.27734 10.8984V9.69884H18V8.29259H7.27734V7.03125ZM5.87109 10.1953H4.46484V7.73438H5.87109V10.1953Z" fill="black"/>
<path d="M15.1523 13.4297C15.1523 13.0414 14.8376 12.7266 14.4492 12.7266H11.6367C11.2484 12.7266 10.9336 13.0414 10.9336 13.4297V14.6602H0V16.0664H10.9336V17.2969C10.9336 17.6852 11.2484 18 11.6367 18H14.4492C14.8376 18 15.1523 17.6852 15.1523 17.2969V16.0664H18V14.6602H15.1523V13.4297ZM13.7461 16.5938H12.3398V14.1328H13.7461V16.5938Z" fill="black"/>
<path d="M15.2227 1.96875V0.703125C15.2227 0.314789 14.9079 0 14.5195 0H11.707C11.3187 0 11.0039 0.314789 11.0039 0.703125V1.96875H0V3.375H11.0039V4.57031C11.0039 4.95865 11.3187 5.27344 11.707 5.27344H14.5195C14.9079 5.27344 15.2227 4.95865 15.2227 4.57031V3.375H18V1.96875H15.2227ZM13.8164 3.86719H12.4102V1.40625H13.8164V3.86719Z" fill="black"/>
</svg>