<svg width="46" height="40" viewBox="0 0 46 40" fill="none" xmlns="http://www.w3.org/2000/svg">
<path d="M32.9569 0.958959C29.1196 0.938452 25.4717 2.62371 22.9999 5.5589C20.5437 2.60365 16.8856 0.913598 13.043 0.958959C5.83951 0.958959 0 6.79847 0 14.0019C0 26.3463 21.5443 38.3994 22.4177 38.8652C22.7701 39.1007 23.2298 39.1007 23.5823 38.8652C24.4557 38.3994 46 26.521 46 14.0019C46 6.79847 40.1604 0.958959 32.9569 0.958959ZM22.9999 36.5361C19.6227 34.5564 2.32912 24.0172 2.32912 14.0019C2.32912 8.08485 7.12589 3.28796 13.0431 3.28796C16.6666 3.24037 20.0576 5.06807 22.0101 8.12084C22.4066 8.66751 23.1712 8.78933 23.7179 8.39279C23.8223 8.317 23.9142 8.22527 23.9899 8.12084C27.2281 3.16849 33.8679 1.77891 38.8203 5.01714C41.852 6.99953 43.6768 10.3795 43.6708 14.0018C43.6709 24.1335 26.3772 34.6146 22.9999 36.5361Z" fill="#00D37B"/>
</svg>
