<svg width="18" height="16" viewBox="0 0 18 16" xmlns="http://www.w3.org/2000/svg">
  <path d="M11.0074 7.56565L9.29895 11.1155C9.0927 11.5476 8.49457 11.5333 8.30551 11.094L6.34957 6.58356L5.31832 9.14413H2.08364L8.35707 15.8045C8.60114 16.0652 8.99645 16.0652 9.24051 15.8045L15.5174 9.14413H11.7671L11.0074 7.56565ZM16.2839 1.49813L16.2014 1.40885C14.4311 -0.469617 11.5333 -0.469617 9.75957 1.40885L8.80051 2.43022L7.84145 1.41242C6.07114 -0.469617 3.16989 -0.469617 1.39957 1.41242L1.31707 1.49813C-0.356989 3.2766 -0.429177 6.10859 1.06614 8.00134H4.58614L5.8202 4.92294C6.00582 4.46225 6.63145 4.45154 6.83082 4.90865L8.83145 9.52625L10.5158 6.03002C10.7186 5.60862 11.2961 5.60862 11.4989 6.03002L12.4477 8.00134H16.5349C18.0302 6.10859 17.958 3.2766 16.2839 1.49813Z" />
</svg>
