<svg width="35" height="45" viewBox="0 0 35 45" fill="none" xmlns="http://www.w3.org/2000/svg">
<path d="M30.25 15H28.125V10.75C28.125 4.885 23.365 0.125 17.5 0.125C11.635 0.125 6.875 4.885 6.875 10.75V15H4.75C2.4125 15 0.5 16.9125 0.5 19.25V40.5C0.5 42.8375 2.4125 44.75 4.75 44.75H30.25C32.5875 44.75 34.5 42.8375 34.5 40.5V19.25C34.5 16.9125 32.5875 15 30.25 15ZM17.5 34.125C15.1625 34.125 13.25 32.2125 13.25 29.875C13.25 27.5375 15.1625 25.625 17.5 25.625C19.8375 25.625 21.75 27.5375 21.75 29.875C21.75 32.2125 19.8375 34.125 17.5 34.125ZM24.0875 15H10.9125V10.75C10.9125 7.11625 13.8663 4.1625 17.5 4.1625C21.1338 4.1625 24.0875 7.11625 24.0875 10.75V15Z" />
</svg>
