<svg width="17" height="17" viewBox="0 0 17 17" xmlns="http://www.w3.org/2000/svg">
<path d="M13.088 0.995164C11.7633 -0.329527 9.60954 -0.333914 8.28485 0.995164L4.95996 4.32005L9.76745 9.12754L13.088 5.79827C14.4126 4.46919 14.4126 2.31986 13.088 0.995164ZM9.67972 2.96027L8.16642 4.45164L8.16203 4.45603C7.98657 4.6271 7.71023 4.62271 7.54355 4.44726C7.37248 4.2718 7.37686 3.99546 7.55232 3.82877L9.07001 2.3374L9.0744 2.33301C9.24986 2.16195 9.5262 2.16633 9.69288 2.34179C9.85956 2.51286 9.85518 2.79359 9.67972 2.96027Z" />
<path d="M4.33705 4.93848L0.990229 8.28969C-0.330076 9.61876 -0.330076 11.7637 0.990229 13.0928C2.32808 14.4131 4.4818 14.4131 5.81965 13.0928L9.14892 9.75036L4.33705 4.93848Z" />
<path d="M16.2993 11.5444L11.5664 16.2817C12.913 17.3125 14.8123 17.1897 16.0098 15.9922C17.2117 14.7948 17.3345 12.8911 16.2993 11.5444Z" />
<path d="M13.6236 10.2285C11.7594 10.2285 10.2461 11.7374 10.2461 13.606C10.2461 14.3517 10.4917 15.0755 10.9435 15.6633L15.6765 10.9303C15.0887 10.4742 14.3693 10.2285 13.6236 10.2285Z" />
</svg>
