<svg width="42" height="22" viewBox="0 0 42 22" fill="none" xmlns="http://www.w3.org/2000/svg">
<path d="M39.9 0H2.1C0.940406 0 0 0.82099 0 1.83333V20.1667C0 21.179 0.940406 22 2.1 22H39.9C41.0596 22 42 21.179 42 20.1667V1.83333C42 0.82099 41.0596 0 39.9 0ZM3.15 19.25V15.5833C5.46984 15.5833 7.35 17.2247 7.35 19.25H3.15ZM3.15 6.41667V2.75H7.35C7.35 4.77526 5.46984 6.41667 3.15 6.41667ZM21 17.4167C17.5206 17.4167 14.7 14.5435 14.7 11C14.7 7.45594 17.5206 4.58333 21 4.58333C24.4794 4.58333 27.3 7.45594 27.3 11C27.3 14.5446 24.4781 17.4167 21 17.4167ZM38.85 19.25H34.65C34.65 17.2247 36.5302 15.5833 38.85 15.5833V19.25ZM38.85 6.41667C36.5302 6.41667 34.65 4.77526 34.65 2.75H38.85V6.41667Z" fill="#000"/>
</svg>
