<svg width="177" height="140" viewBox="0 0 177 140" fill="none" xmlns="http://www.w3.org/2000/svg">
<g clip-path="url(#clip0)">
<path d="M0 79.8721C0 58.7347 16.2772 44.3048 36.0368 44.3048C55.7963 44.3048 71.9939 58.7944 71.9939 79.8721C71.9939 100.95 55.7167 115.419 36.0368 115.419C16.3568 115.419 0 101.069 0 79.8721ZM54.3636 79.8721C54.3636 68.0694 46.1653 60.5857 36.0368 60.5857C25.9083 60.5857 17.6304 68.1291 17.6304 79.8721C17.6304 91.615 25.8088 99.1584 36.0368 99.1584C46.2648 99.1584 54.3636 91.8141 54.3636 79.8721Z" fill="black"/>
<path d="M74.9985 45.3398H91.8529V114.504H74.9985V45.3398Z" fill="black"/>
<path d="M95.355 89.1868C95.355 71.453 108.011 62.8746 119.234 62.8746C128.089 62.8746 132.864 67.7509 133.262 68.6267H133.541V63.9494H150.395V114.504H133.541V109.727H133.262C132.864 110.603 128.089 115.459 119.234 115.459C108.07 115.479 95.355 106.921 95.355 89.1868ZM134.018 89.1868C133.956 87.0145 133.255 84.9087 132.004 83.132C130.753 81.3554 129.006 79.9866 126.982 79.1965C124.958 78.4063 122.746 78.2298 120.622 78.6888C118.498 79.1479 116.557 80.2223 115.04 81.7779C113.522 83.3335 112.497 85.3016 112.091 87.4365C111.684 89.5714 111.916 91.7787 112.755 93.783C113.595 95.7874 115.007 97.4999 116.813 98.7072C118.62 99.9144 120.742 100.563 122.915 100.572C124.415 100.63 125.911 100.373 127.306 99.8186C128.702 99.264 129.965 98.4237 131.017 97.3515C132.068 96.2794 132.883 94.9991 133.411 93.593C133.938 92.1869 134.165 90.686 134.078 89.1868H134.018Z" fill="black"/>
<path d="M150.535 0C147.058 -9.83082e-07 143.615 0.685364 140.402 2.01692C137.19 3.34848 134.272 5.30013 131.814 7.76034C129.356 10.2206 127.407 13.1411 126.078 16.355C124.749 19.569 124.067 23.0134 124.069 26.4913V52.9628H150.535C157.542 52.9417 164.255 50.1441 169.204 45.1826C174.153 40.2211 176.935 33.5 176.941 26.4913C176.941 19.4792 174.161 12.753 169.211 7.78723C164.262 2.82142 157.545 0.0210734 150.535 0Z" fill="#2E5BFF"/>
<path d="M152.883 29.3972V36.0847C152.817 36.9296 152.436 37.7187 151.814 38.2944C151.193 38.87 150.377 39.1899 149.53 39.1899C148.682 39.1899 147.866 38.87 147.245 38.2944C146.623 37.7187 146.242 36.9296 146.177 36.0847V29.3972H142.774V36.0847C142.774 37.8742 143.485 39.5904 144.75 40.8558C146.015 42.1211 147.731 42.832 149.52 42.832C151.309 42.832 153.024 42.1211 154.29 40.8558C155.555 39.5904 156.265 37.8742 156.265 36.0847V29.3972H152.883Z" fill="white"/>
<path d="M152.883 22.6898H159.549C160.394 22.7549 161.182 23.1365 161.758 23.7583C162.334 24.38 162.653 25.1962 162.653 26.0435C162.653 26.8908 162.334 27.707 161.758 28.3287C161.182 28.9505 160.394 29.3321 159.549 29.3972H152.883V32.7808H159.549C161.338 32.7808 163.054 32.0699 164.319 30.8046C165.584 29.5392 166.295 27.823 166.295 26.0335C166.295 24.2441 165.584 22.5279 164.319 21.2625C163.054 19.9972 161.338 19.2863 159.549 19.2863H152.883V22.6898Z" fill="white"/>
<path d="M146.177 22.6897V16.0221C146.242 15.1773 146.623 14.3882 147.245 13.8125C147.866 13.2368 148.682 12.917 149.53 12.917C150.377 12.917 151.193 13.2368 151.814 13.8125C152.436 14.3882 152.817 15.1773 152.883 16.0221V32.7807H156.265V16.0221C156.265 14.2327 155.555 12.5165 154.29 11.2511C153.024 9.98577 151.309 9.2749 149.52 9.2749C147.731 9.2749 146.015 9.98577 144.75 11.2511C143.485 12.5165 142.774 14.2327 142.774 16.0221V22.6897H146.177Z" fill="white"/>
<path d="M156.266 29.3972H139.511C138.666 29.3321 137.877 28.9505 137.302 28.3287C136.726 27.707 136.406 26.8908 136.406 26.0435C136.406 25.1962 136.726 24.38 137.302 23.7583C137.877 23.1365 138.666 22.7549 139.511 22.6898H146.177V19.2863H139.511C137.722 19.2863 136.006 19.9972 134.741 21.2625C133.476 22.5279 132.765 24.2441 132.765 26.0335C132.765 27.823 133.476 29.5392 134.741 30.8046C136.006 32.0699 137.722 32.7808 139.511 32.7808H156.266V29.3972Z" fill="white"/>
<path d="M50.4835 126.565V128.556C50.8966 127.843 51.5022 127.262 52.2308 126.878C52.9594 126.494 53.7815 126.324 54.6025 126.386C55.5362 126.366 56.4579 126.6 57.269 127.063C58.0626 127.531 58.6997 128.223 59.0997 129.053C59.5705 128.222 60.2583 127.534 61.0896 127.063C61.9091 126.581 62.8452 126.333 63.7958 126.346C64.4966 126.317 65.1958 126.432 65.8498 126.686C66.5038 126.939 67.0985 127.325 67.5965 127.819C68.1038 128.381 68.4936 129.038 68.7431 129.752C68.9926 130.467 69.0966 131.224 69.0491 131.979V139.761H65.7061V132.457C65.7663 131.587 65.4802 130.728 64.9101 130.068C64.6284 129.79 64.2917 129.574 63.9217 129.433C63.5516 129.293 63.1563 129.231 62.7611 129.252C62.3662 129.235 61.9719 129.298 61.6024 129.439C61.2329 129.579 60.8959 129.793 60.612 130.068C60.0419 130.728 59.7558 131.587 59.816 132.457V139.761H56.4531V132.457C56.5104 131.59 56.2325 130.735 55.6771 130.068C55.3953 129.79 55.0587 129.574 54.6886 129.433C54.3186 129.293 53.9233 129.231 53.528 129.252C53.13 129.233 52.7323 129.296 52.3593 129.436C51.9863 129.577 51.6459 129.792 51.359 130.068C50.789 130.728 50.5029 131.587 50.5631 132.457V139.761H47.2002V126.525L50.4835 126.565Z" fill="black"/>
<path d="M78.0234 140C77.151 140.029 76.2819 139.878 75.4704 139.556C74.659 139.234 73.9226 138.749 73.3074 138.129C72.0718 136.782 71.4207 135 71.4966 133.173C71.4543 132.27 71.5946 131.367 71.9092 130.519C72.2237 129.67 72.7061 128.895 73.3273 128.237C73.9435 127.62 74.6805 127.138 75.492 126.819C76.3036 126.5 77.1722 126.353 78.0433 126.386C78.9183 126.353 79.7911 126.495 80.611 126.802C81.4309 127.11 82.1814 127.577 82.819 128.177C83.4434 128.809 83.9302 129.563 84.2487 130.392C84.5672 131.221 84.7105 132.107 84.6696 132.994C84.7012 133.425 84.7012 133.857 84.6696 134.288H75.0187C75.0826 135.046 75.4225 135.754 75.9739 136.278C76.2583 136.545 76.593 136.753 76.9586 136.89C77.3241 137.027 77.7131 137.089 78.103 137.074C78.6223 137.101 79.1386 136.981 79.5926 136.727C80.0466 136.474 80.42 136.097 80.67 135.641H84.3115C83.9249 136.885 83.1422 137.969 82.0828 138.726C80.9071 139.587 79.48 140.035 78.0234 140ZM80.2322 130.048C79.6334 129.522 78.8601 129.239 78.0632 129.252C77.2838 129.236 76.5282 129.521 75.954 130.048C75.3633 130.6 75.0012 131.353 74.9391 132.158H81.1873C81.1905 131.752 81.1069 131.351 80.9422 130.98C80.7774 130.609 80.5354 130.278 80.2322 130.009V130.048ZM80.6899 120.455V123.182L75.1978 125.65V123.301L80.6899 120.455Z" fill="black"/>
<path d="M88.1715 138.069C86.9688 136.729 86.3338 134.973 86.4005 133.173C86.3253 131.372 86.9614 129.613 88.1715 128.277C88.7435 127.665 89.4377 127.181 90.2091 126.855C90.9804 126.529 91.8116 126.37 92.6487 126.386C93.4783 126.349 94.3025 126.537 95.0344 126.929C95.7663 127.321 96.3789 127.904 96.8076 128.615V122.127H100.151V139.801H96.8076V137.592C96.3982 138.339 95.7926 138.96 95.0562 139.388C94.3197 139.816 93.4804 140.034 92.6289 140.02C91.7891 140.036 90.9558 139.87 90.1863 139.534C89.4168 139.197 88.7294 138.697 88.1715 138.069ZM95.753 136.079C96.1168 135.704 96.3984 135.257 96.58 134.767C96.7616 134.277 96.8391 133.755 96.8076 133.233C96.8395 132.708 96.7622 132.183 96.5807 131.689C96.3992 131.196 96.1173 130.746 95.753 130.367C95.4374 130.036 95.0574 129.774 94.6364 129.596C94.2154 129.418 93.7624 129.328 93.3054 129.332C92.8479 129.324 92.3938 129.412 91.9723 129.591C91.5508 129.769 91.1712 130.033 90.8579 130.367C90.4986 130.744 90.2212 131.192 90.0432 131.682C89.8651 132.172 89.7902 132.693 89.8231 133.213C89.7938 133.733 89.8704 134.253 90.0482 134.742C90.2261 135.232 90.5016 135.68 90.8579 136.059C91.1738 136.39 91.5535 136.654 91.9742 136.834C92.3949 137.014 92.8478 137.107 93.3054 137.107C93.763 137.107 94.2159 137.014 94.6366 136.834C95.0573 136.654 95.4371 136.39 95.753 136.059V136.079Z" fill="black"/>
<path d="M107.454 123.202C107.446 123.66 107.281 124.101 106.986 124.452C106.691 124.803 106.284 125.041 105.834 125.126C105.384 125.211 104.918 125.138 104.515 124.92C104.113 124.701 103.798 124.351 103.623 123.927C103.449 123.503 103.427 123.032 103.56 122.593C103.692 122.155 103.972 121.775 104.352 121.519C104.732 121.263 105.189 121.146 105.645 121.188C106.102 121.23 106.529 121.428 106.857 121.749C107.05 121.938 107.202 122.164 107.305 122.414C107.407 122.664 107.458 122.932 107.454 123.202ZM103.733 139.801V126.565H107.095V139.801H103.733Z" fill="black"/>
<path d="M111.573 138.129C110.377 136.747 109.719 134.981 109.719 133.153C109.719 131.326 110.377 129.559 111.573 128.177C112.184 127.559 112.917 127.075 113.726 126.756C114.534 126.438 115.4 126.291 116.269 126.326C117.683 126.285 119.075 126.689 120.249 127.481C121.346 128.294 122.115 129.473 122.418 130.805H118.796C118.606 130.284 118.249 129.839 117.782 129.541C117.314 129.242 116.762 129.106 116.209 129.153C115.769 129.134 115.331 129.222 114.933 129.409C114.534 129.596 114.187 129.877 113.921 130.227C113.338 131.081 113.051 132.101 113.105 133.133C113.05 134.159 113.337 135.174 113.921 136.019C114.187 136.37 114.534 136.651 114.933 136.838C115.331 137.025 115.769 137.113 116.209 137.094C116.764 137.136 117.317 136.995 117.784 136.694C118.251 136.392 118.606 135.945 118.796 135.422H122.418C122.08 136.744 121.301 137.909 120.209 138.726C119.047 139.548 117.652 139.973 116.229 139.94C115.37 139.979 114.512 139.837 113.71 139.526C112.908 139.214 112.18 138.738 111.573 138.129Z" fill="black"/>
<path d="M126.039 138.109C125.382 137.471 124.865 136.702 124.522 135.852C124.179 135.002 124.018 134.089 124.049 133.173C124.012 132.256 124.17 131.342 124.513 130.491C124.856 129.64 125.376 128.872 126.039 128.237C127.376 127.047 129.104 126.389 130.894 126.389C132.685 126.389 134.413 127.047 135.75 128.237C137.039 129.573 137.759 131.357 137.759 133.213C137.759 135.069 137.039 136.853 135.75 138.189C135.099 138.811 134.331 139.299 133.491 139.624C132.651 139.948 131.755 140.103 130.855 140.08C129.961 140.09 129.075 139.921 128.247 139.582C127.42 139.244 126.669 138.743 126.039 138.109ZM130.875 137.154C131.329 137.161 131.78 137.073 132.198 136.894C132.617 136.716 132.993 136.452 133.302 136.119C133.661 135.721 133.935 135.256 134.11 134.749C134.284 134.243 134.355 133.707 134.317 133.173C134.38 132.105 134.023 131.055 133.322 130.247C133.01 129.917 132.634 129.655 132.216 129.477C131.798 129.299 131.349 129.209 130.894 129.212C130.443 129.208 129.996 129.298 129.581 129.476C129.167 129.654 128.794 129.917 128.487 130.247C127.798 131.069 127.449 132.123 127.512 133.193C127.446 134.258 127.795 135.307 128.487 136.119C128.788 136.452 129.157 136.717 129.569 136.895C129.98 137.074 130.426 137.162 130.875 137.154Z" fill="black"/>
<path d="M139.67 130.446C139.683 129.899 139.82 129.362 140.072 128.875C140.324 128.389 140.683 127.967 141.122 127.64C142.273 126.887 143.618 126.485 144.993 126.485C146.368 126.485 147.713 126.887 148.863 127.64C149.345 128.011 149.735 128.487 150.004 129.032C150.273 129.577 150.414 130.177 150.415 130.785H146.973C146.973 129.67 146.197 129.113 144.983 129.113C144.464 129.077 143.947 129.209 143.51 129.491C143.338 129.606 143.198 129.764 143.104 129.949C143.01 130.133 142.965 130.339 142.973 130.546C142.985 130.781 143.067 131.008 143.209 131.196C143.351 131.384 143.546 131.525 143.769 131.601C144.407 131.876 145.075 132.076 145.759 132.198C146.495 132.337 147.251 132.516 147.988 132.715C148.743 132.913 149.431 133.312 149.977 133.87C150.25 134.163 150.461 134.507 150.598 134.884C150.734 135.26 150.794 135.659 150.773 136.059C150.784 136.631 150.651 137.197 150.387 137.705C150.123 138.212 149.736 138.646 149.261 138.965C148.108 139.7 146.768 140.091 145.401 140.091C144.033 140.091 142.694 139.7 141.54 138.965C141.041 138.595 140.632 138.116 140.346 137.564C140.06 137.012 139.903 136.402 139.889 135.78H143.112C143.232 136.895 143.948 137.452 145.222 137.452C145.758 137.48 146.288 137.333 146.734 137.034C146.914 136.91 147.061 136.744 147.162 136.549C147.262 136.355 147.314 136.139 147.311 135.92C147.298 135.682 147.216 135.454 147.074 135.263C146.933 135.072 146.738 134.927 146.515 134.845C145.884 134.551 145.214 134.35 144.525 134.248C143.789 134.109 143.033 133.929 142.296 133.73C141.544 133.548 140.856 133.162 140.307 132.616C140.057 132.318 139.871 131.971 139.762 131.598C139.652 131.224 139.621 130.832 139.67 130.446Z" fill="black"/>
</g>
<defs>
<clipPath id="clip0">
<rect width="177" height="140" fill="white"/>
</clipPath>
</defs>
</svg>
