<svg width="33" height="31" viewBox="0 0 33 31" fill="none" xmlns="http://www.w3.org/2000/svg">
<path d="M16.9565 7.9125C18.3069 7.9125 19.4013 9.02477 19.4013 10.3974C19.4013 11.7699 18.3069 12.8822 16.9565 12.8822C15.6061 12.8822 14.5117 11.7699 14.5117 10.3974C14.5117 9.02477 15.6061 7.9125 16.9565 7.9125ZM16.9565 18.5619C20.4141 18.5619 24.058 20.2894 24.058 21.0467V22.3483H9.85501V21.0467C9.85501 20.2894 13.4989 18.5619 16.9565 18.5619ZM16.9565 5.6643C14.3837 5.6643 12.2998 7.78235 12.2998 10.3974C12.2998 13.0124 14.3837 15.1304 16.9565 15.1304C19.5293 15.1304 21.6132 13.0124 21.6132 10.3974C21.6132 7.78235 19.5293 5.6643 16.9565 5.6643ZM16.9565 16.3137C13.8481 16.3137 7.64307 17.8993 7.64307 21.0467V24.5965H26.2699V21.0467C26.2699 17.8993 20.0649 16.3137 16.9565 16.3137Z" fill="white"/>
<path fill-rule="evenodd" clip-rule="evenodd" d="M2 2H4.86734V1H1V2V6.50643H2L2 2Z" fill="white"/>
<path d="M4.86734 2V3H5.86734V2H4.86734ZM2 2V1H1L1 2L2 2ZM4.86734 1H5.86734V0H4.86734V1ZM1 1V0H0V1H1ZM1 6.50643H0V7.50643H1V6.50643ZM2 6.50643V7.50643H3V6.50643H2ZM4.86734 1H2V3H4.86734V1ZM3.86734 1V2H5.86734V1H3.86734ZM1 2H4.86734V0H1V2ZM2 2V1H0V2H2ZM2 6.50643V2H0V6.50643H2ZM2 5.50643H1V7.50643H2V5.50643ZM1 2L1 6.50643H3L3 2L1 2Z" fill="#00D1FF"/>
<path fill-rule="evenodd" clip-rule="evenodd" d="M2 28.614H4.86734V29.614H1V28.614V24.1076H2L2 28.614Z" fill="white"/>
<path d="M4.86734 28.614V27.614H5.86734V28.614H4.86734ZM2 28.614V29.614H1L1 28.614L2 28.614ZM4.86734 29.614H5.86734V30.614H4.86734V29.614ZM1 29.614V30.614H0V29.614H1ZM1 24.1076H0V23.1076H1V24.1076ZM2 24.1076V23.1076H3V24.1076H2ZM4.86734 29.614H2V27.614H4.86734V29.614ZM3.86734 29.614V28.614H5.86734V29.614H3.86734ZM1 28.614H4.86734V30.614H1V28.614ZM2 28.614V29.614H0V28.614H2ZM2 24.1076V28.614H0V24.1076H2ZM2 25.1076H1V23.1076H2V25.1076ZM1 28.614L1 24.1076H3L3 28.614L1 28.614Z" fill="#00D1FF"/>
<path fill-rule="evenodd" clip-rule="evenodd" d="M30.3862 2H27.5189V1H31.3862V2V6.50643H30.3862L30.3862 2Z" fill="white"/>
<path d="M27.5189 2V3H26.5189V2H27.5189ZM30.3862 2V1H31.3862L31.3862 2L30.3862 2ZM27.5189 1H26.5189V3.8147e-06H27.5189V1ZM31.3862 1V3.8147e-06H32.3862V1H31.3862ZM31.3862 6.50643H32.3862V7.50643H31.3862V6.50643ZM30.3862 6.50643V7.50643H29.3862V6.50643H30.3862ZM27.5189 1H30.3862V3H27.5189V1ZM28.5189 1V2H26.5189V1H28.5189ZM31.3862 2H27.5189V3.8147e-06H31.3862V2ZM30.3862 2V1H32.3862V2H30.3862ZM30.3862 6.50643V2H32.3862V6.50643H30.3862ZM30.3862 5.50643H31.3862V7.50643H30.3862V5.50643ZM31.3862 2L31.3862 6.50643H29.3862L29.3862 2L31.3862 2Z" fill="#00D1FF"/>
<path fill-rule="evenodd" clip-rule="evenodd" d="M31.3857 28.7427H27.5184V29.7427H31.3857V28.7427ZM31.3857 28.614V24.1075L30.3857 24.1075L30.3857 28.614H31.3857Z" fill="white"/>
<path d="M27.5184 28.7427V27.7427H26.5184V28.7427H27.5184ZM31.3857 28.7427H32.3857V27.7427H31.3857V28.7427ZM27.5184 29.7427H26.5184V30.7427H27.5184V29.7427ZM31.3857 29.7427V30.7427H32.3857V29.7427H31.3857ZM31.3857 24.1075H32.3857V23.1075L31.3857 23.1075L31.3857 24.1075ZM31.3857 28.614V29.614H32.3857V28.614H31.3857ZM30.3857 24.1075L30.3857 23.1075L29.3857 23.1075V24.1075H30.3857ZM30.3857 28.614H29.3857V29.614H30.3857V28.614ZM27.5184 29.7427H31.3857V27.7427H27.5184V29.7427ZM28.5184 29.7427V28.7427H26.5184V29.7427H28.5184ZM31.3857 28.7427H27.5184V30.7427H31.3857V28.7427ZM30.3857 28.7427V29.7427H32.3857V28.7427H30.3857ZM30.3857 24.1075V28.614H32.3857V24.1075H30.3857ZM30.3857 25.1075L31.3857 25.1075L31.3857 23.1075L30.3857 23.1075L30.3857 25.1075ZM31.3857 28.614L31.3857 24.1075H29.3857L29.3857 28.614H31.3857ZM31.3857 27.614H30.3857V29.614H31.3857V27.614Z" fill="#00D1FF"/>
</svg>
