<svg width="20" height="20" viewBox="0 0 20 20" xmlns="http://www.w3.org/2000/svg">
    <path d="M17.1401 10.936C17.1761 10.636 17.2001 10.324 17.2001 10C17.2001 9.676 17.1761 9.364 17.1281 9.064L19.1561 7.48C19.3361 7.336 19.3841 7.072 19.2761 6.868L17.3561 3.544C17.2361 3.328 16.9841 3.256 16.7681 3.328L14.3801 4.288C13.8761 3.904 13.3481 3.592 12.7601 3.352L12.4001 0.808C12.3641 0.568 12.1601 0.4 11.9201 0.4H8.08011C7.84011 0.4 7.64811 0.568 7.61211 0.808L7.25211 3.352C6.66411 3.592 6.12411 3.916 5.63211 4.288L3.24411 3.328C3.02811 3.244 2.77611 3.328 2.65611 3.544L0.736107 6.868C0.616107 7.084 0.664107 7.336 0.856107 7.48L2.88411 9.064C2.83611 9.364 2.80011 9.688 2.80011 10C2.80011 10.312 2.82411 10.636 2.87211 10.936L0.844106 12.52C0.664106 12.664 0.616107 12.928 0.724107 13.132L2.64411 16.456C2.76411 16.672 3.01611 16.744 3.23211 16.672L5.62011 15.712C6.12411 16.096 6.65211 16.408 7.24011 16.648L7.60011 19.192C7.64811 19.432 7.84011 19.6 8.08011 19.6H11.9201C12.1601 19.6 12.3641 19.432 12.3881 19.192L12.7481 16.648C13.3361 16.408 13.8761 16.084 14.3681 15.712L16.7561 16.672C16.9721 16.756 17.2241 16.672 17.3441 16.456L19.2641 13.132C19.3841 12.916 19.3361 12.664 19.1441 12.52L17.1401 10.936ZM10.0001 13.6C8.02011 13.6 6.40011 11.98 6.40011 10C6.40011 8.02 8.02011 6.4 10.0001 6.4C11.9801 6.4 13.6001 8.02 13.6001 10C13.6001 11.98 11.9801 13.6 10.0001 13.6Z" />
</svg>
