<svg width="25" height="25" viewBox="0 0 25 25" fill="none" xmlns="http://www.w3.org/2000/svg">
<g clip-path="url(#clip0)">
<path d="M14.2502 17.944C13.9472 18.2471 13.5649 18.4517 13.1447 18.5357L9.74473 19.2157C9.60547 19.2436 9.46279 19.2577 9.32085 19.2577C8.74297 19.2577 8.19971 19.0326 7.79126 18.6242C7.39209 18.2251 7.17061 17.6939 7.15864 17.1427L5.66035 18.4192C5.37417 18.663 5.02363 18.789 4.66743 18.789C4.44868 18.789 4.22783 18.7415 4.01826 18.6447C3.46724 18.3902 3.125 17.8553 3.125 17.2484V16.6328C3.125 16.6175 3.125 16.5767 3.07603 16.5494C3.027 16.5221 2.99233 16.5434 2.9792 16.5514L0 18.4073V22.8635C0 23.2618 0.3229 23.5846 0.721143 23.5846H16.3461C16.7444 23.5846 17.0673 23.2617 17.0673 22.8635V15.127L14.2502 17.944Z" fill="white"/>
<path d="M0.721143 6.75786C0.3229 6.75786 0 7.08076 0 7.479V16.7083L2.22002 15.3253C2.69731 15.0314 3.2937 15.0189 3.77959 15.2904C4.26553 15.5619 4.56733 16.0764 4.56733 16.633V17.2486C4.56733 17.2669 4.56733 17.3097 4.62285 17.3354C4.67837 17.3609 4.71108 17.3333 4.72495 17.3214L6.79194 15.5605C6.97573 15.4039 7.2229 15.3519 7.45049 15.4144L7.8793 13.2704C7.96338 12.8502 8.16797 12.468 8.47095 12.165L13.8781 6.75781H0.721143V6.75786Z" fill="white"/>
<path d="M24.7889 2.98654L23.429 1.62672C23.1475 1.34513 22.6908 1.34513 22.4092 1.62672L21.5593 2.47662L21.3893 2.3066C21.1077 2.02501 20.651 2.02501 20.3694 2.3066L18.1597 4.51632L21.8991 8.25578L24.1088 6.04606C24.3905 5.76447 24.3905 5.30783 24.1088 5.02618L23.9388 4.85616L24.7887 4.00626C25.0705 3.72482 25.0705 3.26818 24.7889 2.98654Z" fill="white"/>
<path d="M17.1398 5.53613L9.49081 13.1851C9.39013 13.2858 9.32153 13.414 9.29355 13.5536L8.61362 16.9532C8.56635 17.1896 8.64033 17.434 8.81088 17.6045C8.94746 17.7411 9.13144 17.8158 9.3208 17.8158C9.36782 17.8158 9.41518 17.8111 9.4622 17.8018L12.8618 17.1219C13.0014 17.0939 13.1296 17.0253 13.2303 16.9246L20.8792 9.27564L17.1398 5.53613Z" fill="white"/>
</g>
<defs>
<clipPath id="clip0">
<rect width="25" height="25" fill="white"/>
</clipPath>
</defs>
</svg>
