<svg width="67" height="56" viewBox="0 0 67 56" fill="none" xmlns="http://www.w3.org/2000/svg">
<rect y="8" width="48" height="48" rx="24" fill="#00D37B"/>
<path d="M29.4062 30.5312C26.8735 30.5312 24.8125 32.5923 24.8125 35.125C24.8125 37.0931 26.0632 38.7626 27.8066 39.4152C27.4618 39.9875 26.8404 40.375 26.125 40.375C23.5434 40.375 21.4031 38.4983 20.9675 36.0398L21.8729 34.6817C23.2499 34.1357 24.4052 33.1091 25.0938 31.7265C25.7783 30.3505 26.125 29.0656 26.125 27.9062V23.9688C26.125 23.2439 25.5373 22.6562 24.8125 22.6562H24.3004C23.9398 22.2564 23.4233 22 22.8437 22C21.7581 22 20.875 22.8831 20.875 23.9688C20.875 25.0544 21.7581 25.9375 22.8437 25.9375C23.0749 25.9375 23.2937 25.8902 23.5 25.8166V27.9062C23.5 28.6452 23.2385 29.5623 22.7438 30.5569C22.1471 31.7553 20.941 32.5 19.5971 32.5C18.2385 32.5 17.0221 31.7335 16.4229 30.4986C15.9012 29.4245 15.625 28.4523 15.625 27.6877V25.8166C15.8313 25.8902 16.0501 25.9375 16.2812 25.9375C17.3669 25.9375 18.25 25.0544 18.25 23.9688C18.25 22.8831 17.3669 22 16.2812 22C15.7017 22 15.1852 22.2564 14.8246 22.6562H14.3125C13.5877 22.6562 13 23.2439 13 23.9688V27.6877C13 28.8637 13.357 30.1954 14.0613 31.6451C14.723 33.0085 15.8647 34.0534 17.2167 34.6287L18.3525 36.3322C18.9363 40.1021 22.194 43 26.125 43C28.2586 43 30.0415 41.5305 30.5554 39.5554C32.5305 39.0415 34 37.2586 34 35.125C34 32.5923 31.939 30.5312 29.4062 30.5312L29.4062 30.5312ZM29.4062 37.0937C28.3189 37.0937 27.4375 36.2122 27.4375 35.1249C27.4375 34.0377 28.3189 33.1562 29.4062 33.1562C30.4935 33.1562 31.3749 34.0377 31.3749 35.1249C31.3749 36.2122 30.4935 37.0937 29.4062 37.0937Z" fill="white"/>
<circle cx="51" cy="16" r="14.5" fill="#00D37B" stroke="white" stroke-width="3"/>
<path d="M48.1667 11.4166H46.3334V15.0833H42.6667V16.9166H46.3334V20.5833H48.1667V16.9166H51.8334V15.0833H48.1667V11.4166ZM57.3334 21.5H55.5001V11.765L52.7501 12.7V11.1416L57.0584 9.58331H57.3334V21.5Z" fill="white"/>
</svg>
