<svg width="21" height="21" viewBox="0 0 21 21" fill="none" xmlns="http://www.w3.org/2000/svg">
<path d="M16.4062 8.53125C13.8735 8.53125 11.8125 10.5923 11.8125 13.125C11.8125 15.0931 13.0632 16.7626 14.8066 17.4152C14.4618 17.9875 13.8404 18.375 13.125 18.375C10.5434 18.375 8.40314 16.4983 7.96752 14.0398L8.87291 12.6817C10.2499 12.1357 11.4052 11.1091 12.0938 9.72647C12.7783 8.35052 13.125 7.06558 13.125 5.90625V1.96875C13.125 1.24393 12.5373 0.65625 11.8125 0.65625H11.3004C10.9398 0.256427 10.4233 0 9.84375 0C8.75812 0 7.875 0.883118 7.875 1.96875C7.875 3.05438 8.75812 3.9375 9.84375 3.9375C10.0749 3.9375 10.2937 3.89016 10.5 3.81662V5.90625C10.5 6.64517 10.2385 7.56225 9.74377 8.55688C9.14712 9.75531 7.941 10.5 6.59711 10.5C5.23846 10.5 4.0221 9.73352 3.42288 8.49857C2.90121 7.42447 2.625 6.45227 2.625 5.68772V3.81662C2.83128 3.89016 3.05005 3.9375 3.28125 3.9375C4.36688 3.9375 5.25 3.05438 5.25 1.96875C5.25 0.883118 4.36688 0 3.28125 0C2.70166 0 2.1852 0.256428 1.82455 0.65625H1.3125C0.587677 0.65625 0 1.24393 0 1.96875V5.68772C0 6.86371 0.356965 8.19543 1.06128 9.64509C1.72298 11.0085 2.86468 12.0534 4.21667 12.6287L5.35245 14.3322C5.93629 18.1021 9.19398 21 13.125 21C15.2586 21 17.0415 19.5305 17.5554 17.5554C19.5305 17.0415 21 15.2586 21 13.125C21 10.5923 18.939 8.53125 16.4062 8.53125L16.4062 8.53125ZM16.4062 15.0937C15.3189 15.0937 14.4375 14.2122 14.4375 13.1249C14.4375 12.0377 15.3189 11.1562 16.4062 11.1562C17.4935 11.1562 18.3749 12.0377 18.3749 13.1249C18.3749 14.2122 17.4935 15.0937 16.4062 15.0937Z" fill="#000"/>
</svg>
