<svg width="38" height="35" viewBox="0 0 38 35" xmlns="http://www.w3.org/2000/svg">
<path d="M1.58301 33.25H7.91634V14.25H1.58301V33.25ZM36.4163 15.8333C36.4163 14.0916 34.9913 12.6666 33.2497 12.6666H23.2588L24.763 5.43081L24.8105 4.92415C24.8105 4.27498 24.5413 3.67331 24.1138 3.24581L22.4355 1.58331L12.0172 12.0175C11.4313 12.5875 11.083 13.3791 11.083 14.25V30.0833C11.083 31.825 12.508 33.25 14.2497 33.25H28.4997C29.8138 33.25 30.938 32.4583 31.413 31.3183L36.1947 20.1558C36.3372 19.7916 36.4163 19.4116 36.4163 19V15.8333Z" stroke-width="2"/>
</svg>
