<svg width="34" height="32" viewBox="0 0 34 32" xmlns="http://www.w3.org/2000/svg">
<path d="M32.8337 1.33331H29.667C28.7962 1.33331 28.0837 2.04581 28.0837 2.91665V17.1666C28.0837 18.0375 28.7962 18.75 29.667 18.75H32.8337V1.33331ZM1.43616 12.6066C1.26199 13.0025 1.16699 13.43 1.16699 13.8733V15.5833C1.16699 17.325 2.59199 18.75 4.33366 18.75H13.042L11.5853 26.1125C11.5062 26.4608 11.5537 26.8408 11.712 27.1575C12.0762 27.87 12.5353 28.5192 13.1053 29.0892L13.8337 29.8333L23.9828 19.6841C24.5845 19.0825 24.917 18.275 24.917 17.4358V5.03831C24.917 2.99581 23.2545 1.33331 21.212 1.33331H8.38699C7.26283 1.33331 6.23366 1.91915 5.66366 2.86915L1.43616 12.6066V12.6066Z" stroke-width="2"/>
</svg>
