<svg width="183" height="164" viewBox="0 0 183 164" fill="none" xmlns="http://www.w3.org/2000/svg">
<path d="M143.176 96.6229L143.173 96.6286L128.969 129.366C127.219 132.229 124.035 134 120.658 134H77.269C70.9141 134 65.75 128.842 65.75 122.573V80.76C65.75 78.1999 66.7671 75.7345 68.6125 73.8949L102.192 40.4196L103.947 42.2073L103.955 42.2149C105.8 44.054 107.291 46.1524 108.477 48.4654C108.908 49.326 109.037 50.3675 108.822 51.3111L108.819 51.3248L108.816 51.3387L103.894 76.1387L103.657 77.3333H104.875H134.3C139.636 77.3333 144 81.6886 144 87V92.76C144 94.1082 143.711 95.411 143.176 96.6229ZM48.7 134H39V77.3333H48.7C51.0932 77.3333 53.05 79.2886 53.05 81.6667V129.667C53.05 132.045 51.0932 134 48.7 134Z" stroke="#000" stroke-opacity="0.3" stroke-width="2"/>
<path d="M160.87 94.9643L160.867 94.9701L141.875 138.641C139.478 142.571 135.106 145 130.468 145H72.481C63.8018 145 56.75 137.973 56.75 129.431V73.68C56.75 70.1785 58.1446 66.8066 60.6737 64.2913L105.792 19.418L108.376 22.0437L108.384 22.0513C110.877 24.5306 112.889 27.358 114.49 30.471C115.1 31.6869 115.283 33.1543 114.978 34.4883L114.975 34.5021L114.972 34.516L108.394 67.5827L108.156 68.7778H109.375H148.7C156.018 68.7778 162 74.7352 162 82V89.68C162 91.5256 161.603 93.3082 160.87 94.9643ZM34.3 145H21V68.7778H34.3C37.6854 68.7778 40.45 71.5352 40.45 74.8889V138.889C40.45 142.243 37.6854 145 34.3 145Z" stroke="#000" stroke-opacity="0.1" stroke-width="2"/>
<path d="M180.53 98.7247L180.527 98.7305L156.215 154.702C153.097 159.831 147.405 163 141.368 163H67.161C55.903 163 46.75 153.874 46.75 142.771V71.34C46.75 66.7781 48.5648 62.3861 51.8541 59.1108L109.792 1.41881L113.296 4.98325L113.303 4.99083C116.516 8.19011 119.109 11.8375 121.169 15.8506C121.98 17.4666 122.223 19.4143 121.818 21.1886L121.815 21.2024L121.812 21.2162L113.394 63.5829L113.157 64.7778H114.375H164.7C174.217 64.7778 182 72.5341 182 82V91.84C182 94.2458 181.483 96.5685 180.53 98.7247ZM18.3 163H1V64.7778H18.3C22.7842 64.7778 26.45 68.4341 26.45 72.8889V154.889C26.45 159.344 22.7842 163 18.3 163Z" stroke="#000" stroke-opacity="0.05" stroke-width="2"/>
<path d="M62 120H68.6667C70.5 120 72 118.5 72 116.667V86.6667C72 84.8333 70.5 83.3333 68.6667 83.3333H62V120ZM128.1 96.2667C128.467 95.4333 128.667 94.5333 128.667 93.6V90C128.667 86.3333 125.667 83.3333 122 83.3333H103.667L106.733 67.8333C106.9 67.1 106.8 66.3 106.467 65.6333C105.7 64.1333 104.733 62.7667 103.533 61.5667L102 60L80.6333 81.3667C79.3667 82.6333 78.6667 84.3333 78.6667 86.1V112.233C78.6667 116.5 82.1667 120 86.4667 120H113.5C115.833 120 118.033 118.767 119.233 116.767L128.1 96.2667Z" fill="currentColor"/>
</svg>
