<svg width="18" height="18" viewBox="0 0 13 13" fill="none" xmlns="http://www.w3.org/2000/svg">
<path d="M5.875 9.625C5.875 9.96875 6.15625 10.25 6.5 10.25C6.84375 10.25 7.125 9.96875 7.125 9.625C7.125 9.28125 6.84375 9 6.5 9C6.15625 9 5.875 9.28125 5.875 9.625ZM5.875 0.875V3.375H7.125V2.175C9.24375 2.48125 10.875 4.29375 10.875 6.5C10.875 8.91875 8.91875 10.875 6.5 10.875C4.08125 10.875 2.125 8.91875 2.125 6.5C2.125 5.45 2.49375 4.4875 3.1125 3.7375L6.5 7.125L7.38125 6.24375L3.13125 1.99375V2.00625C1.7625 3.03125 0.875 4.65625 0.875 6.5C0.875 9.60625 3.3875 12.125 6.5 12.125C9.60625 12.125 12.125 9.60625 12.125 6.5C12.125 3.39375 9.60625 0.875 6.5 0.875H5.875ZM10.25 6.5C10.25 6.15625 9.96875 5.875 9.625 5.875C9.28125 5.875 9 6.15625 9 6.5C9 6.84375 9.28125 7.125 9.625 7.125C9.96875 7.125 10.25 6.84375 10.25 6.5ZM2.75 6.5C2.75 6.84375 3.03125 7.125 3.375 7.125C3.71875 7.125 4 6.84375 4 6.5C4 6.15625 3.71875 5.875 3.375 5.875C3.03125 5.875 2.75 6.15625 2.75 6.5Z" />
</svg>
