<svg xmlns="http://www.w3.org/2000/svg" xmlns:xlink="http://www.w3.org/1999/xlink" width="104pt" height="99pt" viewBox="0 0 104 99" version="1.1">
<path style="fill:none;stroke-width:20.0013;stroke-linecap:butt;stroke-linejoin:miter;stroke:rgb(0%,39.99939%,70.199585%);stroke-opacity:1;stroke-miterlimit:2.6131;" d="M 52.617188 977.929688 L 988.671875 977.929688 C 1008.398438 977.929688 1024.53125 961.796875 1024.53125 942.109375 L 1024.53125 53.085938 C 1024.53125 33.359375 1008.398438 17.226563 988.671875 17.226563 L 52.617188 17.226563 C 32.929688 17.226563 16.796875 33.359375 16.796875 53.085938 L 16.796875 942.109375 C 16.796875 961.796875 32.929688 977.929688 52.617188 977.929688 Z M 52.617188 977.929688 " transform="matrix(0.1,0,0,-0.1,0,99)"/>
<path style=" stroke:none;fill-rule:nonzero;fill:rgb(0%,39.99939%,70.199585%);fill-opacity:1;" d="M 20.730469 76.671875 L 16.09375 76.671875 L 16.09375 73.367188 C 16.09375 72.40625 16.039063 71.808594 15.941406 71.566406 C 15.84375 71.332031 15.628906 71.210938 15.289063 71.210938 C 14.90625 71.210938 14.664063 71.355469 14.558594 71.644531 C 14.457031 71.933594 14.40625 72.558594 14.40625 73.519531 L 14.40625 82.332031 C 14.40625 83.257813 14.457031 83.855469 14.558594 84.136719 C 14.664063 84.417969 14.894531 84.558594 15.253906 84.558594 C 15.601563 84.558594 15.828125 84.417969 15.933594 84.136719 C 16.035156 83.855469 16.09375 83.195313 16.09375 82.15625 L 16.09375 79.78125 L 20.730469 79.78125 L 20.730469 80.515625 C 20.730469 82.476563 20.597656 83.867188 20.339844 84.6875 C 20.082031 85.507813 19.5 86.226563 18.609375 86.84375 C 17.71875 87.460938 16.617188 87.773438 15.3125 87.773438 C 13.949219 87.773438 12.828125 87.507813 11.949219 86.984375 C 11.070313 86.460938 10.484375 85.734375 10.195313 84.8125 C 9.910156 83.882813 9.769531 82.492188 9.769531 80.632813 L 9.769531 75.09375 C 9.769531 73.722656 9.8125 72.699219 9.898438 72.015625 C 9.988281 71.332031 10.25 70.671875 10.691406 70.039063 C 11.125 69.40625 11.730469 68.90625 12.507813 68.542969 C 13.28125 68.183594 14.171875 68 15.175781 68 C 16.542969 68 17.671875 68.285156 18.558594 68.84375 C 19.449219 69.40625 20.03125 70.105469 20.3125 70.949219 C 20.589844 71.789063 20.730469 73.09375 20.730469 74.867188 Z M 32.988281 79.507813 C 32.988281 81.414063 32.949219 82.765625 32.867188 83.554688 C 32.78125 84.351563 32.515625 85.074219 32.074219 85.730469 C 31.628906 86.386719 31.027344 86.890625 30.273438 87.242188 C 29.515625 87.59375 28.632813 87.773438 27.628906 87.773438 C 26.671875 87.773438 25.816406 87.601563 25.054688 87.273438 C 24.292969 86.941406 23.683594 86.445313 23.21875 85.78125 C 22.757813 85.117188 22.484375 84.390625 22.394531 83.613281 C 22.304688 82.828125 22.261719 81.460938 22.261719 79.507813 L 22.261719 76.265625 C 22.261719 74.355469 22.300781 73.007813 22.390625 72.210938 C 22.472656 71.417969 22.734375 70.695313 23.183594 70.039063 C 23.625 69.382813 24.222656 68.878906 24.984375 68.527344 C 25.738281 68.175781 26.621094 68 27.628906 68 C 28.582031 68 29.441406 68.167969 30.199219 68.5 C 30.960938 68.832031 31.574219 69.328125 32.035156 69.992188 C 32.496094 70.65625 32.773438 71.378906 32.859375 72.160156 C 32.949219 72.945313 32.988281 74.308594 32.988281 76.265625 Z M 28.351563 73.277344 C 28.351563 72.390625 28.308594 71.828125 28.214844 71.578125 C 28.125 71.335938 27.9375 71.210938 27.648438 71.210938 C 27.40625 71.210938 27.222656 71.3125 27.09375 71.511719 C 26.960938 71.707031 26.898438 72.296875 26.898438 73.277344 L 26.898438 82.132813 C 26.898438 83.234375 26.945313 83.914063 27.027344 84.171875 C 27.109375 84.429688 27.308594 84.558594 27.617188 84.558594 C 27.933594 84.558594 28.132813 84.410156 28.222656 84.117188 C 28.308594 83.816406 28.351563 83.113281 28.351563 81.992188 Z M 49.03125 68.398438 L 49.03125 87.371094 L 44.980469 87.371094 L 44.980469 74.5625 L 43.359375 87.371094 L 40.480469 87.371094 L 38.773438 74.855469 L 38.773438 87.371094 L 34.71875 87.371094 L 34.71875 68.398438 L 40.726563 68.398438 C 40.902344 69.539063 41.085938 70.882813 41.285156 72.429688 L 41.925781 77.261719 L 42.980469 68.398438 Z M 50.894531 68.398438 L 55.566406 68.398438 C 56.828125 68.398438 57.804688 68.503906 58.480469 68.714844 C 59.160156 68.925781 59.671875 69.230469 60.011719 69.628906 C 60.351563 70.027344 60.585938 70.511719 60.707031 71.074219 C 60.828125 71.644531 60.886719 72.519531 60.886719 73.707031 L 60.886719 75.359375 C 60.886719 76.570313 60.769531 77.457031 60.535156 78.007813 C 60.300781 78.5625 59.867188 78.988281 59.238281 79.289063 C 58.613281 79.582031 57.792969 79.730469 56.78125 79.730469 L 55.535156 79.730469 L 55.535156 87.371094 L 50.894531 87.371094 Z M 55.535156 71.644531 L 55.535156 76.472656 C 55.667969 76.480469 55.78125 76.484375 55.875 76.484375 C 56.300781 76.484375 56.59375 76.371094 56.761719 76.152344 C 56.925781 75.925781 57.007813 75.464844 57.007813 74.765625 L 57.007813 73.203125 C 57.007813 72.554688 56.914063 72.132813 56.722656 71.941406 C 56.53125 71.742188 56.136719 71.644531 55.535156 71.644531 Z M 62.222656 68.398438 L 65.503906 68.398438 C 67.695313 68.398438 69.175781 68.488281 69.949219 68.667969 C 70.726563 68.847656 71.355469 69.308594 71.84375 70.042969 C 72.335938 70.785156 72.578125 71.960938 72.578125 73.578125 C 72.578125 75.054688 72.40625 76.046875 72.058594 76.554688 C 71.71875 77.0625 71.035156 77.367188 70.023438 77.46875 C 70.9375 77.710938 71.558594 78.035156 71.875 78.445313 C 72.1875 78.847656 72.386719 79.21875 72.460938 79.558594 C 72.539063 79.898438 72.578125 80.835938 72.578125 82.367188 L 72.578125 87.371094 L 68.273438 87.371094 L 68.273438 81.066406 C 68.273438 80.050781 68.195313 79.421875 68.042969 79.179688 C 67.894531 78.941406 67.496094 78.816406 66.863281 78.816406 L 66.863281 87.371094 L 62.222656 87.371094 Z M 66.863281 71.644531 L 66.863281 75.863281 C 67.382813 75.863281 67.746094 75.789063 67.957031 75.636719 C 68.167969 75.484375 68.273438 74.988281 68.273438 74.152344 L 68.273438 73.113281 C 68.273438 72.507813 68.171875 72.117188 67.96875 71.925781 C 67.765625 71.738281 67.398438 71.644531 66.863281 71.644531 Z M 82.382813 68.398438 L 85.039063 87.371094 L 80.289063 87.371094 L 80.058594 83.960938 L 78.394531 83.960938 L 78.117188 87.371094 L 73.316406 87.371094 L 75.671875 68.398438 Z M 79.925781 80.597656 C 79.691406 78.453125 79.457031 75.796875 79.21875 72.640625 C 78.75 76.269531 78.457031 78.917969 78.339844 80.597656 Z M 95.65625 74.140625 L 91.351563 74.140625 L 91.351563 72.734375 C 91.351563 72.078125 91.296875 71.660156 91.1875 71.480469 C 91.078125 71.300781 90.894531 71.210938 90.632813 71.210938 C 90.355469 71.210938 90.144531 71.332031 90.003906 71.574219 C 89.859375 71.816406 89.789063 72.183594 89.789063 72.675781 C 89.789063 73.308594 89.867188 73.789063 90.027344 74.105469 C 90.183594 74.425781 90.621094 74.8125 91.339844 75.269531 C 93.40625 76.570313 94.703125 77.640625 95.242188 78.476563 C 95.777344 79.3125 96.046875 80.660156 96.046875 82.519531 C 96.046875 83.871094 95.894531 84.867188 95.597656 85.507813 C 95.300781 86.148438 94.726563 86.6875 93.875 87.121094 C 93.023438 87.550781 92.03125 87.773438 90.902344 87.773438 C 89.660156 87.773438 88.597656 87.519531 87.722656 87.019531 C 86.84375 86.519531 86.269531 85.882813 85.996094 85.113281 C 85.726563 84.335938 85.589844 83.238281 85.589844 81.816406 L 85.589844 80.574219 L 89.898438 80.574219 L 89.898438 82.882813 C 89.898438 83.59375 89.957031 84.050781 90.078125 84.253906 C 90.203125 84.457031 90.414063 84.558594 90.722656 84.558594 C 91.03125 84.558594 91.261719 84.429688 91.410156 84.171875 C 91.5625 83.914063 91.636719 83.53125 91.636719 83.023438 C 91.636719 81.90625 91.496094 81.175781 91.210938 80.832031 C 90.914063 80.488281 90.191406 79.914063 89.039063 79.109375 C 87.886719 78.296875 87.121094 77.707031 86.746094 77.339844 C 86.371094 76.972656 86.0625 76.464844 85.816406 75.816406 C 85.570313 75.167969 85.449219 74.339844 85.449219 73.332031 C 85.449219 71.878906 85.621094 70.816406 85.96875 70.144531 C 86.316406 69.472656 86.882813 68.949219 87.660156 68.566406 C 88.4375 68.191406 89.378906 68 90.480469 68 C 91.6875 68 92.714844 68.207031 93.558594 68.621094 C 94.410156 69.035156 94.96875 69.554688 95.25 70.1875 C 95.523438 70.816406 95.65625 71.882813 95.65625 73.390625 L 95.65625 74.140625 "/>
<path style=" stroke:none;fill-rule:evenodd;fill:rgb(92.89856%,10.998535%,14.099121%);fill-opacity:1;" d="M 10.941406 91.257813 C 10.941406 91.257813 18.371094 88.019531 35.515625 88.589844 C 52.660156 89.160156 96.851563 88.589844 96.851563 88.589844 C 96.851563 88.589844 96.28125 91.828125 82.566406 91.636719 C 68.851563 91.445313 10.941406 91.257813 10.941406 91.257813 "/>
<path style=" stroke:none;fill-rule:evenodd;fill:rgb(92.89856%,10.998535%,14.099121%);fill-opacity:1;" d="M 6.75 31.0625 C 6.75 31.0625 34.753906 31.0625 45.039063 31.0625 C 55.328125 31.0625 61.992188 34.300781 61.992188 34.300781 C 61.992188 34.300781 28.46875 34.109375 19.707031 34.109375 C 10.941406 34.109375 6.75 31.0625 6.75 31.0625 "/>
<path style=" stroke:none;fill-rule:nonzero;fill:rgb(0%,39.99939%,70.199585%);fill-opacity:1;" d="M 9.660156 37.925781 L 17.144531 37.925781 C 19.503906 37.925781 21.296875 38.109375 22.515625 38.480469 C 23.730469 38.84375 24.714844 39.59375 25.464844 40.710938 C 26.210938 41.835938 26.582031 43.640625 26.582031 46.132813 C 26.582031 47.824219 26.320313 48.996094 25.792969 49.660156 C 25.261719 50.332031 24.222656 50.839844 22.667969 51.195313 C 24.398438 51.589844 25.574219 52.238281 26.195313 53.144531 C 26.808594 54.058594 27.117188 55.449219 27.117188 57.324219 L 27.117188 59.996094 C 27.117188 61.945313 26.898438 63.382813 26.449219 64.328125 C 26.003906 65.261719 25.292969 65.902344 24.320313 66.246094 C 23.347656 66.59375 21.351563 66.765625 18.339844 66.765625 L 9.660156 66.765625 Z M 17.164063 42.855469 L 17.164063 49.273438 C 17.480469 49.257813 17.730469 49.253906 17.910156 49.253906 C 18.648438 49.253906 19.117188 49.070313 19.316406 48.710938 C 19.515625 48.347656 19.621094 47.3125 19.621094 45.605469 C 19.621094 44.699219 19.535156 44.066406 19.371094 43.707031 C 19.203125 43.34375 18.988281 43.113281 18.71875 43.023438 C 18.453125 42.925781 17.929688 42.867188 17.164063 42.855469 Z M 17.164063 53.757813 L 17.164063 61.828125 C 18.214844 61.796875 18.890625 61.628906 19.183594 61.328125 C 19.472656 61.035156 19.621094 60.300781 19.621094 59.140625 L 19.621094 56.453125 C 19.621094 55.21875 19.488281 54.46875 19.226563 54.210938 C 18.964844 53.949219 18.277344 53.796875 17.164063 53.757813 Z M 42.757813 37.925781 L 47.050781 66.765625 L 39.371094 66.765625 L 39 61.578125 L 36.304688 61.578125 L 35.859375 66.765625 L 28.097656 66.765625 L 31.910156 37.925781 Z M 38.785156 56.46875 C 38.402344 53.207031 38.027344 49.167969 37.644531 44.371094 C 36.882813 49.886719 36.410156 53.917969 36.21875 56.46875 Z M 65.078125 37.925781 L 65.078125 66.765625 L 58.503906 66.765625 L 54.601563 53.65625 L 54.601563 66.765625 L 48.332031 66.765625 L 48.332031 37.925781 L 54.601563 37.925781 L 58.808594 50.914063 L 58.808594 37.925781 Z M 68.085938 37.925781 L 73.394531 37.925781 C 76.933594 37.925781 79.328125 38.058594 80.582031 38.332031 C 81.835938 38.605469 82.855469 39.304688 83.648438 40.425781 C 84.4375 41.550781 84.832031 43.335938 84.832031 45.800781 C 84.832031 48.042969 84.550781 49.550781 83.992188 50.324219 C 83.441406 51.09375 82.339844 51.558594 80.699219 51.710938 C 82.179688 52.082031 83.183594 52.574219 83.695313 53.195313 C 84.199219 53.808594 84.523438 54.375 84.644531 54.890625 C 84.773438 55.40625 84.832031 56.828125 84.832031 59.160156 L 84.832031 66.765625 L 77.871094 66.765625 L 77.871094 57.183594 C 77.871094 55.636719 77.742188 54.683594 77.5 54.3125 C 77.257813 53.949219 76.617188 53.757813 75.589844 53.757813 L 75.589844 66.765625 L 68.085938 66.765625 Z M 75.589844 42.855469 L 75.589844 49.273438 C 76.429688 49.273438 77.019531 49.15625 77.359375 48.925781 C 77.699219 48.695313 77.871094 47.941406 77.871094 46.667969 L 77.871094 45.089844 C 77.871094 44.171875 77.707031 43.574219 77.378906 43.289063 C 77.050781 43.003906 76.453125 42.855469 75.589844 42.855469 Z M 95.234375 37.925781 L 95.234375 66.765625 L 87.730469 66.765625 L 87.730469 37.925781 L 95.234375 37.925781 "/>
<path style=" stroke:none;fill-rule:evenodd;fill:rgb(92.89856%,10.998535%,14.099121%);fill-opacity:1;" d="M 29.839844 27.902344 C 35.910156 18.183594 42.011719 13.148438 48.460938 13.25 C 60.503906 13.441406 66.105469 23.425781 69.816406 35.101563 C 79.003906 34.144531 88.191406 34.355469 97.378906 34.730469 C 88.316406 33.359375 79.210938 32.160156 69.816406 32.121094 C 67.121094 20.257813 61.816406 10.824219 50.074219 10.640625 C 42.578125 10.527344 34.675781 13.328125 29.839844 27.902344 "/>
<path style=" stroke:none;fill-rule:evenodd;fill:rgb(100%,79.598999%,1.599121%);fill-opacity:1;" d="M 37.785156 30.632813 C 40.308594 25.191406 44.40625 19.976563 49.578125 14.863281 C 47.671875 14.863281 46.261719 14.863281 44.351563 14.863281 C 40.257813 21.113281 37.90625 26.367188 37.785156 30.632813 "/>
<path style=" stroke:none;fill-rule:evenodd;fill:rgb(65.098572%,80.799866%,21.998596%);fill-opacity:1;" d="M 50.695313 8.78125 C 52.144531 9.109375 53.59375 9.441406 55.042969 9.773438 C 64.058594 8.347656 72.480469 14.546875 77.886719 28.023438 C 74.53125 18.652344 73.09375 8.683594 61.5 7.042969 C 57.585938 6.488281 52.992188 7.0625 50.695313 8.78125 "/>
<path style=" stroke:none;fill-rule:evenodd;fill:rgb(100%,100%,100%);fill-opacity:1;" d="M 35.675781 54.046875 L 40.210938 54.046875 L 42.566406 49.75 L 40.3125 45.5 L 35.800781 45.472656 L 35.675781 54.046875 "/>
<path style=" stroke:none;fill-rule:evenodd;fill:rgb(0%,39.99939%,70.199585%);fill-opacity:1;" d="M 33.257813 49.863281 L 35.804688 45.410156 L 38.144531 49.796875 L 35.667969 54.058594 L 33.257813 49.863281 "/>
<path style=" stroke:none;fill-rule:evenodd;fill:rgb(100%,100%,100%);fill-opacity:1;" d="M 38.996094 60.160156 L 43.53125 60.160156 L 45.882813 55.859375 L 43.632813 51.609375 L 39.121094 51.585938 L 38.996094 60.160156 "/>
<path style=" stroke:none;fill-rule:evenodd;fill:rgb(0%,39.99939%,70.199585%);fill-opacity:1;" d="M 36.578125 55.972656 L 39.125 51.519531 L 41.460938 55.90625 L 38.988281 60.167969 L 36.578125 55.972656 "/>
<path style=" stroke:none;fill-rule:evenodd;fill:rgb(100%,100%,100%);fill-opacity:1;" d="M 32.09375 60.160156 L 36.628906 60.160156 L 38.980469 55.859375 L 36.730469 51.609375 L 32.21875 51.585938 L 32.09375 60.160156 "/>
<path style=" stroke:none;fill-rule:evenodd;fill:rgb(0%,39.99939%,70.199585%);fill-opacity:1;" d="M 29.675781 55.972656 L 32.222656 51.519531 L 34.5625 55.90625 L 32.089844 60.167969 L 29.675781 55.972656 "/>
</svg>
