<?xml version="1.0" encoding="UTF-8"?>
<svg xmlns="http://www.w3.org/2000/svg" xmlns:xlink="http://www.w3.org/1999/xlink" width="478.4pt" height="383.4pt" viewBox="0 0 478.4 383.4" version="1.1">
<defs>
<clipPath id="clip1">
  <path d="M 7 6 L 476 6 L 476 383.398438 L 7 383.398438 Z M 7 6 "/>
</clipPath>
</defs>
<g id="surface1">
<g clip-path="url(#clip1)" clip-rule="nonzero">
<path style=" stroke:none;fill-rule:evenodd;fill:rgb(94.139099%,48.631287%,0%);fill-opacity:1;" d="M 62.804688 69.703125 L 326.636719 8.792969 C 365.136719 -0.0976563 403.90625 24.128906 412.792969 62.628906 L 473.703125 326.460938 C 478.40625 346.832031 473.835938 367.277344 462.785156 383.335938 L 61.488281 383.335938 L 8.96875 155.855469 C 0.0820313 117.359375 24.308594 78.589844 62.804688 69.703125 Z M 62.804688 69.703125 "/>
</g>
<path style=" stroke:none;fill-rule:evenodd;fill:rgb(100%,100%,100%);fill-opacity:1;" d="M 148.003906 290.746094 L 126.261719 290.746094 L 126.261719 243.355469 L 81.910156 243.355469 L 81.910156 290.746094 L 60.171875 290.746094 L 60.171875 181.3125 L 81.910156 181.3125 L 81.910156 224.042969 L 126.261719 224.042969 L 126.261719 181.3125 L 148.003906 181.3125 Z M 148.003906 290.746094 "/>
<path style=" stroke:none;fill-rule:evenodd;fill:rgb(100%,92.576599%,0%);fill-opacity:1;" d="M 191.089844 185.449219 C 191.089844 187.25 190.75 188.9375 190.019531 190.511719 C 189.316406 192.085938 188.363281 193.464844 187.152344 194.644531 C 185.941406 195.828125 184.507813 196.753906 182.847656 197.429688 C 181.21875 198.132813 179.472656 198.46875 177.675781 198.46875 C 175.902344 198.46875 174.242188 198.132813 172.667969 197.429688 C 171.121094 196.753906 169.742188 195.828125 168.5625 194.644531 C 167.378906 193.464844 166.453125 192.085938 165.75 190.511719 C 165.074219 188.9375 164.734375 187.25 164.734375 185.449219 C 164.734375 183.621094 165.074219 181.933594 165.75 180.332031 C 166.453125 178.753906 167.378906 177.347656 168.5625 176.167969 C 169.742188 174.988281 171.121094 174.058594 172.667969 173.382813 C 174.242188 172.679688 175.902344 172.34375 177.675781 172.34375 C 179.472656 172.34375 181.21875 172.679688 182.847656 173.382813 C 184.507813 174.058594 185.941406 174.988281 187.152344 176.167969 C 188.363281 177.347656 189.316406 178.753906 190.019531 180.332031 C 190.75 181.933594 191.089844 183.621094 191.089844 185.449219 Z M 191.089844 185.449219 "/>
<path style=" stroke:none;fill-rule:evenodd;fill:rgb(100%,100%,100%);fill-opacity:1;" d="M 208.890625 317.265625 L 208.890625 291.972656 L 207.796875 291.984375 C 202.140625 291.984375 196.882813 291.054688 191.988281 289.171875 C 190.796875 288.71875 189.644531 288.210938 188.53125 287.648438 C 175.542969 280.964844 169.003906 267.292969 167.605469 248.054688 L 167.605469 211.609375 L 188.53125 211.609375 C 188.53125 221.820313 189.140625 239.230469 188.53125 252.832031 C 188.53125 255.957031 189.488281 260.234375 190.582031 263.15625 C 191.679688 266.050781 193.140625 268.441406 194.941406 270.300781 C 196.769531 272.183594 198.910156 273.5625 201.382813 274.460938 C 203.65625 275.316406 206.144531 275.761719 208.890625 275.828125 L 208.890625 211.609375 L 221.746094 211.609375 C 223.066406 211.609375 224.199219 211.910156 225.089844 212.507813 C 225.996094 213.117188 226.554688 214.0625 226.863281 215.320313 L 228.605469 222.492188 C 230.238281 220.664063 231.984375 218.976563 233.78125 217.457031 C 235.609375 215.914063 237.554688 214.59375 239.6875 213.492188 C 241.796875 212.402344 244.074219 211.539063 246.523438 210.933594 C 248.964844 210.332031 251.613281 210.03125 254.453125 210.03125 C 258.8125 210.03125 262.773438 210.972656 266.40625 212.84375 C 270.027344 214.710938 273.175781 217.410156 275.796875 220.945313 C 283.207031 230.929688 284.121094 236.539063 284.121094 249.207031 C 284.121094 255.308594 283.308594 260.960938 281.648438 266.191406 C 280.015625 271.394531 277.683594 275.921875 274.644531 279.75 C 271.636719 283.574219 267.980469 286.554688 263.734375 288.722656 C 259.484375 290.886719 254.707031 291.984375 249.445313 291.984375 C 245.003906 291.984375 241.234375 291.308594 238.140625 289.957031 C 235.074219 288.605469 232.289063 286.78125 229.816406 284.472656 L 229.816406 317.265625 Z M 247.308594 223.921875 C 243.398438 223.921875 240.109375 224.710938 237.410156 226.257813 C 234.710938 227.832031 232.175781 230.109375 229.816406 233.0625 L 229.816406 269.3125 C 231.925781 271.84375 234.175781 273.617188 236.621094 274.628906 C 239.066406 275.644531 241.683594 276.148438 244.496094 276.148438 C 247.195313 276.148438 249.644531 275.613281 251.867188 274.546875 C 254.085938 273.476563 256 271.84375 257.601563 269.652344 C 259.175781 267.457031 260.414063 264.675781 261.257813 261.300781 C 262.101563 257.894531 262.550781 253.875 262.550781 249.207031 C 262.550781 244.59375 262.1875 240.683594 261.484375 237.476563 C 260.75 234.273438 259.738281 231.65625 258.417969 229.660156 C 257.097656 227.632813 255.519531 226.199219 253.636719 225.273438 C 251.78125 224.371094 249.671875 223.921875 247.308594 223.921875 Z M 247.308594 223.921875 "/>
<path style=" stroke:none;fill-rule:evenodd;fill:rgb(100%,100%,100%);fill-opacity:1;" d="M 333.734375 210.285156 C 338.910156 210.285156 343.667969 211.121094 347.992188 212.789063 C 352.324219 214.460938 356.058594 216.90625 359.1875 220.046875 C 362.324219 223.199219 364.773438 224.4375 366.527344 229.039063 C 368.285156 233.65625 369.171875 238.914063 369.171875 244.847656 C 369.171875 246.449219 369.085938 247.742188 368.917969 248.753906 C 368.75 249.769531 368.496094 250.585938 368.128906 251.203125 C 367.792969 251.792969 367.285156 252.214844 366.667969 252.46875 C 366.019531 252.722656 365.234375 252.832031 364.304688 252.832031 L 315.371094 252.832031 C 315.707031 256.800781 316.410156 260.230469 317.507813 263.15625 C 318.601563 266.050781 320.066406 268.441406 321.867188 270.300781 C 323.695313 272.183594 325.832031 273.5625 328.304688 274.460938 C 330.78125 275.390625 333.507813 275.839844 336.546875 275.839844 C 339.554688 275.839844 342.171875 275.472656 344.394531 274.714844 C 346.644531 273.984375 348.582031 273.167969 350.269531 272.324219 C 351.929688 271.480469 353.421875 270.691406 354.742188 269.933594 C 356.066406 269.203125 357.359375 268.835938 358.625 268.835938 C 360.171875 268.835938 361.410156 269.453125 362.421875 270.71875 L 368.441406 278.453125 C 366.160156 281.097656 363.6875 283.292969 360.929688 285.007813 C 358.171875 286.75 355.332031 288.128906 352.410156 289.140625 C 349.457031 290.15625 346.476563 290.886719 343.464844 291.335938 C 340.425781 291.757813 337.53125 291.984375 334.71875 291.984375 C 297.246094 291.984375 286.53125 248.882813 305.019531 222.183594 C 307.851563 218.09375 312.503906 215.625 317.335938 213.492188 C 322.171875 211.355469 327.632813 210.285156 333.734375 210.285156 Z M 334.15625 222.515625 C 328.8125 222.515625 324.652344 224.0625 321.613281 227.183594 C 318.601563 230.277344 316.664063 234.664063 315.761719 240.320313 L 350.382813 240.320313 C 350.382813 237.957031 350.074219 235.707031 349.425781 233.570313 C 348.808594 231.433594 347.824219 229.519531 346.476563 227.886719 C 345.125 226.230469 343.4375 224.933594 341.414063 223.949219 C 339.359375 222.996094 336.941406 222.515625 334.15625 222.515625 Z M 334.15625 222.515625 "/>
<path style=" stroke:none;fill-rule:evenodd;fill:rgb(100%,100%,100%);fill-opacity:1;" d="M 383.347656 290.746094 L 383.347656 211.609375 L 395.636719 211.609375 C 397.773438 211.609375 399.261719 212.011719 400.105469 212.761719 C 400.96875 213.519531 401.578125 214.875 401.824219 216.78125 L 402.890625 225.105469 C 405.367188 220.4375 408.246094 216.757813 411.523438 214.082031 C 414.816406 211.394531 418.640625 210.03125 422.972656 210.03125 C 426.542969 210.03125 429.496094 210.878906 431.804688 212.59375 L 430.226563 225.582031 C 430.113281 226.554688 429.789063 227.257813 429.242188 227.664063 C 428.703125 228.0625 427.949219 228.28125 427.019531 228.28125 C 426.207031 228.28125 425.023438 228.167969 423.480469 227.914063 C 421.933594 227.664063 420.527344 227.550781 419.203125 227.550781 C 417.261719 227.550781 415.546875 227.832031 414.058594 228.367188 C 412.539063 228.929688 411.1875 229.746094 410.007813 230.8125 C 408.824219 231.882813 407.757813 233.175781 406.828125 234.722656 C 405.902344 236.242188 405.054688 238.011719 404.269531 239.980469 L 404.269531 290.746094 Z M 383.347656 290.746094 "/>
</g>
</svg>
